<?xml version="1.0" encoding="UTF-8" standalone="no"?>
<!DOCTYPE svg PUBLIC "-//W3C//DTD SVG 1.1//EN" "http://www.w3.org/Graphics/SVG/1.1/DTD/svg11.dtd">
<svg width="100%" height="100%" viewBox="0 0 128 128" version="1.1" xmlns="http://www.w3.org/2000/svg" xmlns:xlink="http://www.w3.org/1999/xlink" xml:space="preserve" xmlns:serif="http://www.serif.com/" style="fill-rule:evenodd;clip-rule:evenodd;stroke-linejoin:round;stroke-miterlimit:2;">
    <g transform="matrix(0.263559,0,0,0.263559,-214.186,-75.985)">
        <circle cx="1055.5" cy="531.133" r="242.829" style="fill-opacity:0;"/>
        <clipPath id="_clip1">
            <circle cx="1055.5" cy="531.133" r="242.829"/>
        </clipPath>
        <g clip-path="url(#_clip1)">
            <g transform="matrix(1.18976,0,0,1.18976,-614.129,236.348)">
                <path d="M1403.27,43.688L1607.36,451.86L1199.18,451.86L1403.27,43.688Z" style="fill:rgb(152,206,255);fill-opacity:0;"/>
                <path d="M1403.27,43.688L1607.36,451.86L1199.18,451.86L1403.27,43.688ZM1403.27,132.825L1263.68,411.997L1542.86,411.997L1403.27,132.825Z" style="fill:white;"/>
            </g>
            <g transform="matrix(2.15553,0,0,2.15553,-1955.78,150.617)">
                <path d="M1379.69,176.898C1379.69,173.61 1378.38,170.457 1376.06,168.133C1373.73,165.808 1370.58,164.502 1367.29,164.502L1367.29,164.502C1364,164.502 1360.85,165.808 1358.52,168.133C1356.2,170.457 1354.89,173.61 1354.89,176.898L1354.89,176.902C1354.89,180.189 1356.2,183.342 1358.52,185.667C1360.85,187.991 1364,189.297 1367.29,189.297L1367.29,189.297C1370.58,189.297 1373.73,187.991 1376.06,185.667C1378.38,183.342 1379.69,180.189 1379.69,176.902L1379.69,176.898Z" style="fill:white;"/>
                <path d="M1379.69,176.898L1379.69,176.902C1379.69,180.189 1378.38,183.342 1376.06,185.667C1373.73,187.991 1370.58,189.297 1367.29,189.297L1367.29,189.297C1364,189.297 1360.85,187.991 1358.52,185.667C1356.2,183.342 1354.89,180.189 1354.89,176.902L1354.89,176.898C1354.89,173.61 1356.2,170.457 1358.52,168.133C1360.85,165.808 1364,164.502 1367.29,164.502L1367.29,164.502C1370.58,164.502 1373.73,165.808 1376.06,168.133C1378.38,170.457 1379.69,173.61 1379.69,176.898ZM1361.35,176.898L1361.35,176.902C1361.35,178.476 1361.98,179.985 1363.09,181.098C1364.2,182.211 1365.71,182.837 1367.29,182.838L1367.29,182.838C1368.87,182.837 1370.38,182.211 1371.49,181.098C1372.6,179.985 1373.23,178.476 1373.23,176.902L1373.23,176.898C1373.23,175.324 1372.6,173.814 1371.49,172.701C1370.38,171.588 1368.87,170.963 1367.29,170.961L1367.29,170.961C1365.71,170.963 1364.2,171.588 1363.09,172.701C1361.98,173.814 1361.35,175.324 1361.35,176.898Z" style="fill:white;"/>
            </g>
            <g transform="matrix(2.15553,0,0,2.15553,-1850.09,150.617)">
                <path d="M1379.69,176.898C1379.69,173.61 1378.38,170.457 1376.06,168.133C1373.73,165.808 1370.58,164.502 1367.29,164.502L1367.29,164.502C1364,164.502 1360.85,165.808 1358.52,168.133C1356.2,170.457 1354.89,173.61 1354.89,176.898L1354.89,176.902C1354.89,180.189 1356.2,183.342 1358.52,185.667C1360.85,187.991 1364,189.297 1367.29,189.297L1367.29,189.297C1370.58,189.297 1373.73,187.991 1376.06,185.667C1378.38,183.342 1379.69,180.189 1379.69,176.902L1379.69,176.898Z" style="fill:white;"/>
                <path d="M1379.69,176.898L1379.69,176.902C1379.69,180.189 1378.38,183.342 1376.06,185.667C1373.73,187.991 1370.58,189.297 1367.29,189.297L1367.29,189.297C1364,189.297 1360.85,187.991 1358.52,185.667C1356.2,183.342 1354.89,180.189 1354.89,176.902L1354.89,176.898C1354.89,173.61 1356.2,170.457 1358.52,168.133C1360.85,165.808 1364,164.502 1367.29,164.502L1367.29,164.502C1370.58,164.502 1373.73,165.808 1376.06,168.133C1378.38,170.457 1379.69,173.61 1379.69,176.898ZM1361.35,176.898L1361.35,176.902C1361.35,178.476 1361.98,179.985 1363.09,181.098C1364.2,182.211 1365.71,182.837 1367.29,182.838L1367.29,182.838C1368.87,182.837 1370.38,182.211 1371.49,181.098C1372.6,179.985 1373.23,178.476 1373.23,176.902L1373.23,176.898C1373.23,175.324 1372.6,173.814 1371.49,172.701C1370.38,171.588 1368.87,170.963 1367.29,170.961L1367.29,170.961C1365.71,170.963 1364.2,171.588 1363.09,172.701C1361.98,173.814 1361.35,175.324 1361.35,176.898Z" style="fill:white;"/>
            </g>
        </g>
        <path d="M1055.5,288.303C1189.52,288.303 1298.32,397.111 1298.32,531.133C1298.32,665.154 1189.52,773.962 1055.5,773.962C921.474,773.962 812.665,665.154 812.665,531.133C812.665,397.111 921.474,288.303 1055.5,288.303ZM1055.5,335.731C947.65,335.731 860.093,423.287 860.093,531.133C860.093,638.978 947.65,726.534 1055.5,726.534C1163.34,726.534 1250.9,638.978 1250.9,531.133C1250.9,423.287 1163.34,335.731 1055.5,335.731Z" style="fill:white;"/>
    </g>
</svg>
